<mxfile host="app.diagrams.net" modified="2023-07-18T05:13:01.683Z" agent="Mozilla/5.0 (Windows NT 10.0; Win64; x64) AppleWebKit/537.36 (KHTML, like Gecko) Chrome/114.0.0.0 Safari/537.36" etag="SW_wiEsHN_lrrXfvWlgZ" version="21.6.2" type="device">
  <diagram name="Trang-1" id="iFU0MZHla55vpfrF85uT">
    <mxGraphModel dx="3563" dy="2236" grid="0" gridSize="10" guides="1" tooltips="1" connect="1" arrows="1" fold="1" page="1" pageScale="1" pageWidth="827" pageHeight="1169" math="0" shadow="0">
      <root>
        <mxCell id="0" />
        <mxCell id="1" parent="0" />
        <mxCell id="gDpafScgUw4IIOWztnrJ-9" style="rounded=0;orthogonalLoop=1;jettySize=auto;html=1;entryX=0.5;entryY=1;entryDx=0;entryDy=0;exitX=0.5;exitY=0;exitDx=0;exitDy=0;" parent="1" source="tlnyBGycdhl3UOv0Z1U2-16" target="tlnyBGycdhl3UOv0Z1U2-31" edge="1">
          <mxGeometry relative="1" as="geometry">
            <mxPoint x="347.4074074074074" y="430" as="sourcePoint" />
            <mxPoint x="356.36363636363626" y="360" as="targetPoint" />
          </mxGeometry>
        </mxCell>
        <mxCell id="tlnyBGycdhl3UOv0Z1U2-11" style="rounded=0;orthogonalLoop=1;jettySize=auto;html=1;entryX=1;entryY=0.5;entryDx=0;entryDy=0;exitX=0;exitY=0.5;exitDx=0;exitDy=0;" edge="1" parent="1" source="tlnyBGycdhl3UOv0Z1U2-17" target="tlnyBGycdhl3UOv0Z1U2-13">
          <mxGeometry relative="1" as="geometry">
            <mxPoint x="313.80645161290295" y="470" as="sourcePoint" />
          </mxGeometry>
        </mxCell>
        <mxCell id="gDpafScgUw4IIOWztnrJ-11" style="rounded=0;orthogonalLoop=1;jettySize=auto;html=1;exitX=0.5;exitY=0;exitDx=0;exitDy=0;entryX=0.5;entryY=1;entryDx=0;entryDy=0;" parent="1" source="tlnyBGycdhl3UOv0Z1U2-18" target="tlnyBGycdhl3UOv0Z1U2-13" edge="1">
          <mxGeometry relative="1" as="geometry">
            <mxPoint x="493.6071428571431" y="542" as="sourcePoint" />
            <mxPoint x="373.3928571428569" y="470" as="targetPoint" />
          </mxGeometry>
        </mxCell>
        <mxCell id="tlnyBGycdhl3UOv0Z1U2-1" value="&lt;b&gt;Users&lt;/b&gt;" style="swimlane;childLayout=stackLayout;horizontal=1;startSize=50;horizontalStack=0;rounded=1;fontSize=14;fontStyle=0;strokeWidth=2;resizeParent=0;resizeLast=1;shadow=0;dashed=0;align=center;arcSize=4;whiteSpace=wrap;html=1;" vertex="1" parent="1">
          <mxGeometry x="342" y="609" width="310" height="140" as="geometry" />
        </mxCell>
        <mxCell id="tlnyBGycdhl3UOv0Z1U2-2" value="&lt;div style=&quot;border-color: var(--border-color);&quot;&gt;+ &lt;u&gt;&lt;b&gt;user_id (Primary Key)&lt;/b&gt;&lt;/u&gt;&lt;/div&gt;&lt;div style=&quot;border-color: var(--border-color);&quot;&gt;+ username&lt;/div&gt;&lt;div style=&quot;border-color: var(--border-color);&quot;&gt;+ email&lt;/div&gt;&lt;div style=&quot;border-color: var(--border-color);&quot;&gt;+ password_hash&lt;/div&gt;&lt;div style=&quot;border-color: var(--border-color);&quot;&gt;+ role: User role (e.g., waiter, chef, manager, customer).&lt;/div&gt;" style="align=left;strokeColor=none;fillColor=none;spacingLeft=4;fontSize=12;verticalAlign=top;resizable=0;rotatable=0;part=1;html=1;" vertex="1" parent="tlnyBGycdhl3UOv0Z1U2-1">
          <mxGeometry y="50" width="310" height="90" as="geometry" />
        </mxCell>
        <mxCell id="tlnyBGycdhl3UOv0Z1U2-10" style="rounded=0;orthogonalLoop=1;jettySize=auto;html=1;entryX=0.5;entryY=1;entryDx=0;entryDy=0;" edge="1" parent="1" source="tlnyBGycdhl3UOv0Z1U2-3" target="tlnyBGycdhl3UOv0Z1U2-9">
          <mxGeometry relative="1" as="geometry" />
        </mxCell>
        <mxCell id="tlnyBGycdhl3UOv0Z1U2-3" value="&lt;b&gt;Menus&lt;/b&gt;" style="swimlane;childLayout=stackLayout;horizontal=1;startSize=50;horizontalStack=0;rounded=1;fontSize=14;fontStyle=0;strokeWidth=2;resizeParent=0;resizeLast=1;shadow=0;dashed=0;align=center;arcSize=4;whiteSpace=wrap;html=1;" vertex="1" parent="1">
          <mxGeometry x="430" y="35" width="396" height="121" as="geometry" />
        </mxCell>
        <mxCell id="tlnyBGycdhl3UOv0Z1U2-4" value="&lt;div style=&quot;border-color: var(--border-color);&quot;&gt;&lt;div style=&quot;border-color: var(--border-color);&quot;&gt;&lt;div style=&quot;border-color: var(--border-color);&quot;&gt;&lt;u&gt;&lt;b&gt;menu_id &lt;/b&gt;&lt;/u&gt;(Primary Key): Unique identifier for each menu item.&lt;/div&gt;&lt;div style=&quot;border-color: var(--border-color);&quot;&gt;name: Name of the menu item (e.g., fried chicken, shrimp soup, etc.).&lt;/div&gt;&lt;div style=&quot;border-color: var(--border-color);&quot;&gt;description: Description of the menu item.&lt;/div&gt;&lt;/div&gt;&lt;/div&gt;" style="align=left;strokeColor=none;fillColor=none;spacingLeft=4;fontSize=12;verticalAlign=top;resizable=0;rotatable=0;part=1;html=1;" vertex="1" parent="tlnyBGycdhl3UOv0Z1U2-3">
          <mxGeometry y="50" width="396" height="71" as="geometry" />
        </mxCell>
        <mxCell id="tlnyBGycdhl3UOv0Z1U2-6" value="&lt;b&gt;Tables&lt;/b&gt;" style="swimlane;childLayout=stackLayout;horizontal=1;startSize=50;horizontalStack=0;rounded=1;fontSize=14;fontStyle=0;strokeWidth=2;resizeParent=0;resizeLast=1;shadow=0;dashed=0;align=center;arcSize=4;whiteSpace=wrap;html=1;" vertex="1" parent="1">
          <mxGeometry x="-36" y="713" width="308" height="165" as="geometry" />
        </mxCell>
        <mxCell id="tlnyBGycdhl3UOv0Z1U2-7" value="&lt;div style=&quot;border-color: var(--border-color);&quot;&gt;&lt;div style=&quot;border-color: var(--border-color);&quot;&gt;&lt;span style=&quot;background-color: initial;&quot;&gt;&lt;u&gt;&lt;b&gt;+ table_id (Primary Key)&lt;/b&gt;&lt;/u&gt;&lt;/span&gt;&lt;br&gt;&lt;/div&gt;&lt;div style=&quot;border-color: var(--border-color);&quot;&gt;+ number_of_seats:&amp;nbsp;&lt;/div&gt;&lt;div style=&quot;border-color: var(--border-color);&quot;&gt;Number of seats available at the table.&lt;/div&gt;&lt;div style=&quot;border-color: var(--border-color);&quot;&gt;+ location:&amp;nbsp;&lt;/div&gt;&lt;div style=&quot;border-color: var(--border-color);&quot;&gt;Location or table description.&lt;/div&gt;&lt;div style=&quot;border-color: var(--border-color);&quot;&gt;+ status:&amp;nbsp;&lt;/div&gt;&lt;div style=&quot;border-color: var(--border-color);&quot;&gt;Table status (e.g., occupied, available, reserved).&lt;/div&gt;&lt;/div&gt;" style="align=left;strokeColor=none;fillColor=none;spacingLeft=4;fontSize=12;verticalAlign=top;resizable=0;rotatable=0;part=1;html=1;" vertex="1" parent="tlnyBGycdhl3UOv0Z1U2-6">
          <mxGeometry y="50" width="308" height="115" as="geometry" />
        </mxCell>
        <mxCell id="tlnyBGycdhl3UOv0Z1U2-8" value="&lt;b&gt;Categories&lt;/b&gt;" style="swimlane;childLayout=stackLayout;horizontal=1;startSize=50;horizontalStack=0;rounded=1;fontSize=14;fontStyle=0;strokeWidth=2;resizeParent=0;resizeLast=1;shadow=0;dashed=0;align=center;arcSize=4;whiteSpace=wrap;html=1;" vertex="1" parent="1">
          <mxGeometry x="681" y="-193" width="161" height="87" as="geometry" />
        </mxCell>
        <mxCell id="tlnyBGycdhl3UOv0Z1U2-9" value="&lt;div style=&quot;border-color: var(--border-color);&quot;&gt;&lt;div style=&quot;border-color: var(--border-color);&quot;&gt;&lt;span style=&quot;background-color: initial;&quot;&gt;&lt;u&gt;&lt;b&gt;category_id (Primary Key)&lt;/b&gt;&lt;/u&gt;&lt;/span&gt;&lt;br&gt;&lt;/div&gt;&lt;div style=&quot;border-color: var(--border-color);&quot;&gt;name&lt;/div&gt;&lt;/div&gt;" style="align=left;strokeColor=none;fillColor=none;spacingLeft=4;fontSize=12;verticalAlign=top;resizable=0;rotatable=0;part=1;html=1;" vertex="1" parent="tlnyBGycdhl3UOv0Z1U2-8">
          <mxGeometry y="50" width="161" height="37" as="geometry" />
        </mxCell>
        <mxCell id="tlnyBGycdhl3UOv0Z1U2-27" style="rounded=0;orthogonalLoop=1;jettySize=auto;html=1;" edge="1" parent="1" source="tlnyBGycdhl3UOv0Z1U2-12" target="tlnyBGycdhl3UOv0Z1U2-6">
          <mxGeometry relative="1" as="geometry" />
        </mxCell>
        <mxCell id="tlnyBGycdhl3UOv0Z1U2-12" value="&lt;b&gt;Orders&lt;/b&gt;" style="swimlane;childLayout=stackLayout;horizontal=1;startSize=50;horizontalStack=0;rounded=1;fontSize=14;fontStyle=0;strokeWidth=2;resizeParent=0;resizeLast=1;shadow=0;dashed=0;align=center;arcSize=4;whiteSpace=wrap;html=1;" vertex="1" parent="1">
          <mxGeometry x="-426" y="274" width="374" height="217" as="geometry" />
        </mxCell>
        <mxCell id="tlnyBGycdhl3UOv0Z1U2-13" value="&lt;div style=&quot;border-color: var(--border-color);&quot;&gt;&lt;div style=&quot;border-color: var(--border-color);&quot;&gt;&lt;div style=&quot;border-color: var(--border-color);&quot;&gt;&lt;span style=&quot;background-color: initial;&quot;&gt;+ &lt;b&gt;order_id &lt;/b&gt;(Primary Key)&lt;/span&gt;&lt;br&gt;&lt;/div&gt;&lt;div style=&quot;border-color: var(--border-color);&quot;&gt;+ &lt;u&gt;customer_id&lt;/u&gt;(Foreign Key)&lt;/div&gt;&lt;div style=&quot;border-color: var(--border-color);&quot;&gt;References the user_id of the customerwho placed the order.&lt;/div&gt;&lt;div style=&quot;border-color: var(--border-color);&quot;&gt;&lt;div style=&quot;border-color: var(--border-color);&quot;&gt;+&amp;nbsp;&lt;u style=&quot;border-color: var(--border-color);&quot;&gt;staff_id&lt;/u&gt;(Foreign Key)&lt;/div&gt;&lt;div style=&quot;border-color: var(--border-color);&quot;&gt;References the user_id of the staff who placed the order.&lt;/div&gt;&lt;/div&gt;&lt;div style=&quot;border-color: var(--border-color);&quot;&gt;+ &lt;u&gt;table_id &lt;/u&gt;(Foreign Key):&amp;nbsp;&lt;/div&gt;&lt;div style=&quot;border-color: var(--border-color);&quot;&gt;References the table_id of the table for which the order is placed.&lt;/div&gt;&lt;div style=&quot;border-color: var(--border-color);&quot;&gt;+ order_status:&amp;nbsp;&lt;/div&gt;&lt;div style=&quot;border-color: var(--border-color);&quot;&gt;Status of the order (e.g., in progress, delivered, paid).&lt;/div&gt;&lt;div style=&quot;border-color: var(--border-color);&quot;&gt;+ order_timestamp:&amp;nbsp;&lt;/div&gt;&lt;div style=&quot;border-color: var(--border-color);&quot;&gt;Timestamp when the order was placed.&lt;/div&gt;&lt;/div&gt;&lt;/div&gt;" style="align=left;strokeColor=none;fillColor=none;spacingLeft=4;fontSize=12;verticalAlign=top;resizable=0;rotatable=0;part=1;html=1;" vertex="1" parent="tlnyBGycdhl3UOv0Z1U2-12">
          <mxGeometry y="50" width="374" height="167" as="geometry" />
        </mxCell>
        <mxCell id="tlnyBGycdhl3UOv0Z1U2-16" value="&lt;b&gt;Orders_Menus&lt;/b&gt;" style="swimlane;childLayout=stackLayout;horizontal=1;startSize=50;horizontalStack=0;rounded=1;fontSize=14;fontStyle=0;strokeWidth=2;resizeParent=0;resizeLast=1;shadow=0;dashed=0;align=center;arcSize=4;whiteSpace=wrap;html=1;" vertex="1" parent="1">
          <mxGeometry x="88" y="278" width="348" height="191" as="geometry" />
        </mxCell>
        <mxCell id="tlnyBGycdhl3UOv0Z1U2-17" value="&lt;div style=&quot;border-color: var(--border-color);&quot;&gt;&lt;div style=&quot;border-color: var(--border-color);&quot;&gt;&lt;div style=&quot;border-color: var(--border-color);&quot;&gt;&lt;div style=&quot;border-color: var(--border-color);&quot;&gt;&lt;span style=&quot;background-color: initial;&quot;&gt;&lt;b&gt;order_item_id (Primary Key)&lt;/b&gt;&lt;/span&gt;&lt;br&gt;&lt;/div&gt;&lt;div style=&quot;border-color: var(--border-color);&quot;&gt;&lt;u&gt;order_id &lt;/u&gt;(Foreign Key):&amp;nbsp;&lt;/div&gt;&lt;div style=&quot;border-color: var(--border-color);&quot;&gt;References the order_id of the order to which the item belongs.&lt;/div&gt;&lt;div style=&quot;border-color: var(--border-color);&quot;&gt;&lt;u&gt;menu_item_id &lt;/u&gt;(Foreign Key):&amp;nbsp;&lt;/div&gt;&lt;div style=&quot;border-color: var(--border-color);&quot;&gt;References the item_id of the menu item in the order.&lt;/div&gt;&lt;div style=&quot;border-color: var(--border-color);&quot;&gt;quantity:&amp;nbsp;&lt;/div&gt;&lt;div style=&quot;border-color: var(--border-color);&quot;&gt;Quantity of the menu item ordered.&lt;/div&gt;&lt;div style=&quot;border-color: var(--border-color);&quot;&gt;notes:&amp;nbsp;&lt;/div&gt;&lt;div style=&quot;border-color: var(--border-color);&quot;&gt;Additional notes or special requests for the item.&lt;/div&gt;&lt;/div&gt;&lt;/div&gt;&lt;/div&gt;" style="align=left;strokeColor=none;fillColor=none;spacingLeft=4;fontSize=12;verticalAlign=top;resizable=0;rotatable=0;part=1;html=1;" vertex="1" parent="tlnyBGycdhl3UOv0Z1U2-16">
          <mxGeometry y="50" width="348" height="141" as="geometry" />
        </mxCell>
        <mxCell id="tlnyBGycdhl3UOv0Z1U2-18" value="&lt;b&gt;Payments&lt;/b&gt;" style="swimlane;childLayout=stackLayout;horizontal=1;startSize=50;horizontalStack=0;rounded=1;fontSize=14;fontStyle=0;strokeWidth=2;resizeParent=0;resizeLast=1;shadow=0;dashed=0;align=center;arcSize=4;whiteSpace=wrap;html=1;" vertex="1" parent="1">
          <mxGeometry x="-559" y="644" width="380" height="197" as="geometry" />
        </mxCell>
        <mxCell id="tlnyBGycdhl3UOv0Z1U2-19" value="&lt;div style=&quot;border-color: var(--border-color);&quot;&gt;&lt;div style=&quot;border-color: var(--border-color);&quot;&gt;&lt;div style=&quot;border-color: var(--border-color);&quot;&gt;&lt;div style=&quot;border-color: var(--border-color);&quot;&gt;&lt;div style=&quot;border-color: var(--border-color);&quot;&gt;+ &lt;u&gt;&lt;b&gt;payment_id &lt;/b&gt;&lt;/u&gt;(Primary Key)&lt;/div&gt;&lt;div style=&quot;border-color: var(--border-color);&quot;&gt;+ &lt;u&gt;order_id &lt;/u&gt;(Foreign Key):&amp;nbsp;&lt;/div&gt;&lt;div style=&quot;border-color: var(--border-color);&quot;&gt;References the order_id of the order for which the payment is made.&lt;/div&gt;&lt;div style=&quot;border-color: var(--border-color);&quot;&gt;+ payment_amount:&amp;nbsp;&lt;/div&gt;&lt;div style=&quot;border-color: var(--border-color);&quot;&gt;Amount paid for the order.&lt;/div&gt;&lt;div style=&quot;border-color: var(--border-color);&quot;&gt;+ payment_method:&amp;nbsp;&lt;/div&gt;&lt;div style=&quot;border-color: var(--border-color);&quot;&gt;Method of payment (e.g., cash, credit card, mobile payment).&lt;/div&gt;&lt;div style=&quot;border-color: var(--border-color);&quot;&gt;+ payment_timestamp:&amp;nbsp;&lt;/div&gt;&lt;div style=&quot;border-color: var(--border-color);&quot;&gt;Timestamp when the payment was made.&lt;/div&gt;&lt;/div&gt;&lt;/div&gt;&lt;/div&gt;&lt;/div&gt;" style="align=left;strokeColor=none;fillColor=none;spacingLeft=4;fontSize=12;verticalAlign=top;resizable=0;rotatable=0;part=1;html=1;rounded=0;" vertex="1" parent="tlnyBGycdhl3UOv0Z1U2-18">
          <mxGeometry y="50" width="380" height="147" as="geometry" />
        </mxCell>
        <mxCell id="tlnyBGycdhl3UOv0Z1U2-24" style="rounded=0;orthogonalLoop=1;jettySize=auto;html=1;entryX=0.75;entryY=0;entryDx=0;entryDy=0;" edge="1" parent="1" source="tlnyBGycdhl3UOv0Z1U2-20" target="tlnyBGycdhl3UOv0Z1U2-1">
          <mxGeometry relative="1" as="geometry" />
        </mxCell>
        <mxCell id="tlnyBGycdhl3UOv0Z1U2-25" style="edgeStyle=orthogonalEdgeStyle;rounded=0;orthogonalLoop=1;jettySize=auto;html=1;entryX=1;entryY=0.5;entryDx=0;entryDy=0;exitX=0.5;exitY=1;exitDx=0;exitDy=0;" edge="1" parent="1" source="tlnyBGycdhl3UOv0Z1U2-21" target="tlnyBGycdhl3UOv0Z1U2-7">
          <mxGeometry relative="1" as="geometry" />
        </mxCell>
        <mxCell id="tlnyBGycdhl3UOv0Z1U2-20" value="&lt;b&gt;Reservation&lt;/b&gt;" style="swimlane;childLayout=stackLayout;horizontal=1;startSize=50;horizontalStack=0;rounded=1;fontSize=14;fontStyle=0;strokeWidth=2;resizeParent=0;resizeLast=1;shadow=0;dashed=0;align=center;arcSize=4;whiteSpace=wrap;html=1;" vertex="1" parent="1">
          <mxGeometry x="617" y="337" width="348" height="191" as="geometry" />
        </mxCell>
        <mxCell id="tlnyBGycdhl3UOv0Z1U2-21" value="&lt;div style=&quot;border-color: var(--border-color);&quot;&gt;&lt;div style=&quot;border-color: var(--border-color);&quot;&gt;&lt;div style=&quot;border-color: var(--border-color);&quot;&gt;&lt;div style=&quot;border-color: var(--border-color);&quot;&gt;&lt;div style=&quot;border-color: var(--border-color);&quot;&gt;+ &lt;u&gt;&lt;b&gt;reservation_id &lt;/b&gt;&lt;/u&gt;(Primary Key)&lt;/div&gt;&lt;div style=&quot;border-color: var(--border-color);&quot;&gt;+ &lt;u&gt;customer_id &lt;/u&gt;(Foreign Key):&amp;nbsp;&lt;/div&gt;&lt;div style=&quot;border-color: var(--border-color);&quot;&gt;References the user_id of the customer who made the reservation.&lt;/div&gt;&lt;div style=&quot;border-color: var(--border-color);&quot;&gt;+ &lt;u&gt;table_id &lt;/u&gt;(Foreign Key):&amp;nbsp;&lt;/div&gt;&lt;div style=&quot;border-color: var(--border-color);&quot;&gt;References the table_id of the table reserved.&lt;/div&gt;&lt;div style=&quot;border-color: var(--border-color);&quot;&gt;+ reservation_datetime:&amp;nbsp;&lt;/div&gt;&lt;div style=&quot;border-color: var(--border-color);&quot;&gt;Date and time of the reservation.&lt;/div&gt;&lt;div style=&quot;border-color: var(--border-color);&quot;&gt;+ status:&amp;nbsp;&lt;/div&gt;&lt;div style=&quot;border-color: var(--border-color);&quot;&gt;Reservation status (e.g., confirmed, canceled).&lt;/div&gt;&lt;/div&gt;&lt;/div&gt;&lt;/div&gt;&lt;/div&gt;" style="align=left;strokeColor=none;fillColor=none;spacingLeft=4;fontSize=12;verticalAlign=top;resizable=0;rotatable=0;part=1;html=1;" vertex="1" parent="tlnyBGycdhl3UOv0Z1U2-20">
          <mxGeometry y="50" width="348" height="141" as="geometry" />
        </mxCell>
        <mxCell id="tlnyBGycdhl3UOv0Z1U2-28" value="&lt;b&gt;items&lt;/b&gt;" style="swimlane;childLayout=stackLayout;horizontal=1;startSize=50;horizontalStack=0;rounded=1;fontSize=14;fontStyle=0;strokeWidth=2;resizeParent=0;resizeLast=1;shadow=0;dashed=0;align=center;arcSize=4;whiteSpace=wrap;html=1;" vertex="1" parent="1">
          <mxGeometry x="-342" y="-148" width="331" height="238" as="geometry" />
        </mxCell>
        <mxCell id="tlnyBGycdhl3UOv0Z1U2-29" value="&lt;div style=&quot;border-color: var(--border-color);&quot;&gt;&lt;div style=&quot;border-color: var(--border-color);&quot;&gt;&lt;div style=&quot;border-color: var(--border-color);&quot;&gt;+ &lt;u&gt;&lt;b&gt;item_id &lt;/b&gt;&lt;/u&gt;(Primary Key): Unique identifier for each item.&lt;/div&gt;&lt;div style=&quot;border-color: var(--border-color);&quot;&gt;+ name: Name of the item&amp;nbsp;&lt;/div&gt;&lt;div style=&quot;border-color: var(--border-color);&quot;&gt;(e.g., ingredient name, snack name, drink name).&lt;/div&gt;&lt;div style=&quot;border-color: var(--border-color);&quot;&gt;+ description:&amp;nbsp;&lt;/div&gt;&lt;div style=&quot;border-color: var(--border-color);&quot;&gt;Description of the item.&lt;/div&gt;&lt;div style=&quot;border-color: var(--border-color);&quot;&gt;+ price&lt;/div&gt;&lt;div style=&quot;border-color: var(--border-color);&quot;&gt;+ availability&lt;/div&gt;&lt;div style=&quot;border-color: var(--border-color);&quot;&gt;Availability status of the item (e.g., available, out of stock).&lt;/div&gt;&lt;div style=&quot;border-color: var(--border-color);&quot;&gt;+ stock_quantity&lt;/div&gt;&lt;div style=&quot;border-color: var(--border-color);&quot;&gt;Current stock quantity of the item.&lt;/div&gt;&lt;div style=&quot;border-color: var(--border-color);&quot;&gt;+ unit_of_measurement&lt;/div&gt;&lt;div style=&quot;border-color: var(--border-color);&quot;&gt;Measurement unit for the item (e.g., grams, kilograms).&lt;/div&gt;&lt;/div&gt;&lt;/div&gt;" style="align=left;strokeColor=none;fillColor=none;spacingLeft=4;fontSize=12;verticalAlign=top;resizable=0;rotatable=0;part=1;html=1;" vertex="1" parent="tlnyBGycdhl3UOv0Z1U2-28">
          <mxGeometry y="50" width="331" height="188" as="geometry" />
        </mxCell>
        <mxCell id="tlnyBGycdhl3UOv0Z1U2-32" style="rounded=0;orthogonalLoop=1;jettySize=auto;html=1;entryX=1;entryY=0.25;entryDx=0;entryDy=0;" edge="1" parent="1" source="tlnyBGycdhl3UOv0Z1U2-30" target="tlnyBGycdhl3UOv0Z1U2-29">
          <mxGeometry relative="1" as="geometry" />
        </mxCell>
        <mxCell id="tlnyBGycdhl3UOv0Z1U2-33" style="rounded=0;orthogonalLoop=1;jettySize=auto;html=1;" edge="1" parent="1" source="tlnyBGycdhl3UOv0Z1U2-30" target="tlnyBGycdhl3UOv0Z1U2-3">
          <mxGeometry relative="1" as="geometry" />
        </mxCell>
        <mxCell id="tlnyBGycdhl3UOv0Z1U2-30" value="&lt;b&gt;Menus_Items&lt;/b&gt;" style="swimlane;childLayout=stackLayout;horizontal=1;startSize=50;horizontalStack=0;rounded=1;fontSize=14;fontStyle=0;strokeWidth=2;resizeParent=0;resizeLast=1;shadow=0;dashed=0;align=center;arcSize=4;whiteSpace=wrap;html=1;" vertex="1" parent="1">
          <mxGeometry x="55" y="-294" width="418" height="172" as="geometry" />
        </mxCell>
        <mxCell id="tlnyBGycdhl3UOv0Z1U2-31" value="&lt;div style=&quot;border-color: var(--border-color);&quot;&gt;&lt;div style=&quot;border-color: var(--border-color);&quot;&gt;&lt;div style=&quot;border-color: var(--border-color);&quot;&gt;&lt;div style=&quot;border-color: var(--border-color);&quot;&gt;&lt;u&gt;&lt;b&gt;+ menu_item_id &lt;/b&gt;&lt;/u&gt;(Primary Key)&lt;/div&gt;&lt;div style=&quot;border-color: var(--border-color);&quot;&gt;item_id (Foreign Key):&amp;nbsp;&lt;/div&gt;&lt;div style=&quot;border-color: var(--border-color);&quot;&gt;+ References the item_id of the item in the &quot;Items&quot; table.&lt;/div&gt;&lt;div style=&quot;border-color: var(--border-color);&quot;&gt;menu_id (Foreign Key):&amp;nbsp;&lt;/div&gt;&lt;div style=&quot;border-color: var(--border-color);&quot;&gt;+ References the menu_id of the menu item in the &quot;Menu&quot; table.&lt;/div&gt;&lt;/div&gt;&lt;/div&gt;&lt;/div&gt;" style="align=left;strokeColor=none;fillColor=none;spacingLeft=4;fontSize=12;verticalAlign=top;resizable=0;rotatable=0;part=1;html=1;" vertex="1" parent="tlnyBGycdhl3UOv0Z1U2-30">
          <mxGeometry y="50" width="418" height="122" as="geometry" />
        </mxCell>
        <mxCell id="tlnyBGycdhl3UOv0Z1U2-42" style="rounded=0;orthogonalLoop=1;jettySize=auto;html=1;entryX=0;entryY=0.25;entryDx=0;entryDy=0;" edge="1" parent="1" source="tlnyBGycdhl3UOv0Z1U2-35" target="tlnyBGycdhl3UOv0Z1U2-29">
          <mxGeometry relative="1" as="geometry" />
        </mxCell>
        <mxCell id="tlnyBGycdhl3UOv0Z1U2-35" value="&lt;b&gt;Inventory&amp;nbsp;Transactions &lt;/b&gt;" style="swimlane;childLayout=stackLayout;horizontal=1;startSize=50;horizontalStack=0;rounded=1;fontSize=14;fontStyle=0;strokeWidth=2;resizeParent=0;resizeLast=1;shadow=0;dashed=0;align=center;arcSize=4;whiteSpace=wrap;html=1;" vertex="1" parent="1">
          <mxGeometry x="-911" y="-291" width="499" height="158" as="geometry" />
        </mxCell>
        <mxCell id="tlnyBGycdhl3UOv0Z1U2-36" value="&lt;div style=&quot;border-color: var(--border-color);&quot;&gt;&lt;div style=&quot;border-color: var(--border-color);&quot;&gt;&lt;div style=&quot;border-color: var(--border-color);&quot;&gt;&lt;div style=&quot;border-color: var(--border-color);&quot;&gt;&lt;div style=&quot;border-color: var(--border-color);&quot;&gt;&lt;u&gt;&lt;b&gt;+ transaction_id &lt;/b&gt;&lt;/u&gt;(Primary Key): Unique identifier for each inventory transaction.&lt;/div&gt;&lt;div style=&quot;border-color: var(--border-color);&quot;&gt;&lt;u&gt;+ item_id &lt;/u&gt;(Foreign Key): References the item_id of the item involved in the transaction.&lt;/div&gt;&lt;div style=&quot;border-color: var(--border-color);&quot;&gt;+ transaction_type: Type of transaction (e.g., used, restocked, sold).&lt;/div&gt;&lt;div style=&quot;border-color: var(--border-color);&quot;&gt;+ quantity: Quantity of the item involved in the transaction.&lt;/div&gt;&lt;div style=&quot;border-color: var(--border-color);&quot;&gt;+ transaction_timestamp: Timestamp of the inventory transaction.&lt;/div&gt;&lt;/div&gt;&lt;/div&gt;&lt;/div&gt;&lt;/div&gt;" style="align=left;strokeColor=none;fillColor=none;spacingLeft=4;fontSize=12;verticalAlign=top;resizable=0;rotatable=0;part=1;html=1;" vertex="1" parent="tlnyBGycdhl3UOv0Z1U2-35">
          <mxGeometry y="50" width="499" height="108" as="geometry" />
        </mxCell>
        <mxCell id="tlnyBGycdhl3UOv0Z1U2-37" value="&lt;b&gt;Sales Report&lt;/b&gt;" style="swimlane;childLayout=stackLayout;horizontal=1;startSize=50;horizontalStack=0;rounded=1;fontSize=14;fontStyle=0;strokeWidth=2;resizeParent=0;resizeLast=1;shadow=0;dashed=0;align=center;arcSize=4;whiteSpace=wrap;html=1;" vertex="1" parent="1">
          <mxGeometry x="-1154" y="252" width="423" height="148" as="geometry" />
        </mxCell>
        <mxCell id="tlnyBGycdhl3UOv0Z1U2-38" value="&lt;div style=&quot;border-color: var(--border-color);&quot;&gt;&lt;div style=&quot;border-color: var(--border-color);&quot;&gt;&lt;div style=&quot;border-color: var(--border-color);&quot;&gt;&lt;div style=&quot;border-color: var(--border-color);&quot;&gt;&lt;div style=&quot;border-color: var(--border-color);&quot;&gt;&lt;u&gt;&lt;b&gt;report_id &lt;/b&gt;&lt;/u&gt;(Primary Key): Unique identifier for each sales report.&lt;/div&gt;&lt;div style=&quot;border-color: var(--border-color);&quot;&gt;report_date: Date of the sales report.&lt;/div&gt;&lt;div style=&quot;border-color: var(--border-color);&quot;&gt;total_sales: Total sales revenue for the specific date.&lt;/div&gt;&lt;div style=&quot;border-color: var(--border-color);&quot;&gt;total_orders: Total number of orders received for the specific date.&lt;/div&gt;&lt;div style=&quot;border-color: var(--border-color);&quot;&gt;total_payments: Total payment amount received for the specific date.&lt;/div&gt;&lt;/div&gt;&lt;/div&gt;&lt;/div&gt;&lt;/div&gt;" style="align=left;strokeColor=none;fillColor=none;spacingLeft=4;fontSize=12;verticalAlign=top;resizable=0;rotatable=0;part=1;html=1;" vertex="1" parent="tlnyBGycdhl3UOv0Z1U2-37">
          <mxGeometry y="50" width="423" height="98" as="geometry" />
        </mxCell>
        <mxCell id="tlnyBGycdhl3UOv0Z1U2-43" style="rounded=0;orthogonalLoop=1;jettySize=auto;html=1;" edge="1" parent="1" source="tlnyBGycdhl3UOv0Z1U2-40" target="tlnyBGycdhl3UOv0Z1U2-29">
          <mxGeometry relative="1" as="geometry" />
        </mxCell>
        <mxCell id="tlnyBGycdhl3UOv0Z1U2-40" value="&lt;b&gt;Import Payments&lt;/b&gt;" style="swimlane;childLayout=stackLayout;horizontal=1;startSize=50;horizontalStack=0;rounded=1;fontSize=14;fontStyle=0;strokeWidth=2;resizeParent=0;resizeLast=1;shadow=0;dashed=0;align=center;arcSize=4;whiteSpace=wrap;html=1;" vertex="1" parent="1">
          <mxGeometry x="-1047" y="-52" width="499" height="158" as="geometry" />
        </mxCell>
        <mxCell id="tlnyBGycdhl3UOv0Z1U2-41" value="&lt;div style=&quot;border-color: var(--border-color);&quot;&gt;&lt;div style=&quot;border-color: var(--border-color);&quot;&gt;&lt;div style=&quot;border-color: var(--border-color);&quot;&gt;&lt;div style=&quot;border-color: var(--border-color);&quot;&gt;&lt;div style=&quot;border-color: var(--border-color);&quot;&gt;&lt;div style=&quot;border-color: var(--border-color);&quot;&gt;&lt;b&gt;&lt;u&gt;+ payment_id &lt;/u&gt;&lt;/b&gt;(Primary Key): Unique identifier for each import payment.&lt;/div&gt;&lt;div style=&quot;border-color: var(--border-color);&quot;&gt;&lt;u&gt;+ item_id &lt;/u&gt;(Foreign Key): References the item_id of the item in the &quot;Items&quot; table.&lt;/div&gt;&lt;div style=&quot;border-color: var(--border-color);&quot;&gt;+ payment_amount: Amount paid for the import.&lt;/div&gt;&lt;div style=&quot;border-color: var(--border-color);&quot;&gt;+ payment_method: Method of payment for the import (e.g., bank transfer, cash).&lt;/div&gt;&lt;div style=&quot;border-color: var(--border-color);&quot;&gt;+ payment_timestamp: Timestamp when the payment was made.&lt;/div&gt;&lt;/div&gt;&lt;/div&gt;&lt;/div&gt;&lt;/div&gt;&lt;/div&gt;" style="align=left;strokeColor=none;fillColor=none;spacingLeft=4;fontSize=12;verticalAlign=top;resizable=0;rotatable=0;part=1;html=1;" vertex="1" parent="tlnyBGycdhl3UOv0Z1U2-40">
          <mxGeometry y="50" width="499" height="108" as="geometry" />
        </mxCell>
      </root>
    </mxGraphModel>
  </diagram>
</mxfile>
